<?xml version="1.0" encoding="iso-8859-1"?>
<!-- Generator: Adobe Illustrator 19.0.1, SVG Export Plug-In . SVG Version: 6.00 Build 0)  -->
<svg version="1.1" id="Dice_New" xmlns="http://www.w3.org/2000/svg" xmlns:xlink="http://www.w3.org/1999/xlink" x="0px" y="0px"
	 viewBox="0 0 117.792 134.31" enable-background="new 0 0 117.792 134.31" xml:space="preserve">
<polygon fill="#FCF5DF" points="59.667,0.638 55.446,0.999 2.913,32.388 1,35.826 0.667,94.701 1.914,99.201 4.917,104.013
	10.917,107.388 32.792,119.611 53.042,131.691 58.546,133.756 62.854,132.745 112.104,103.826 114.854,100.763 117.291,94.576
	117.291,34.201 114.917,31.229 "/>
<g>
	<path fill="#081F2C" d="M56.32,133.823c-0.799,0-1.692-0.288-2.593-0.853L5.113,104.636C2.333,102.89,0,96.768,0,93.843V37.634
		c0-1.467,0.532-2.569,1.499-3.103c1.052-0.581,2.49-0.389,3.948,0.527l48.805,30.665c2.71,1.703,4.915,5.497,4.915,8.458v56.209
		c0,1.467-0.532,2.569-1.499,3.104C57.268,133.713,56.812,133.823,56.32,133.823z M2.853,35.198c-0.325,0-0.619,0.069-0.871,0.208
		C1.349,35.756,1,36.547,1,37.634v56.209c0,2.644,2.243,8.438,4.631,9.938l48.621,28.338c1.139,0.716,2.208,0.896,2.932,0.499
		c0.634-0.351,0.982-1.142,0.982-2.229V74.18c0-2.611-2.036-6.097-4.447-7.61L4.915,35.904C4.172,35.438,3.459,35.198,2.853,35.198z
		"/>
</g>
<g>
	<path fill="#081F2C" d="M61.212,133.823c-0.486,0-0.938-0.107-1.335-0.325c-0.981-0.539-1.522-1.662-1.522-3.163V73.067
		c0-3.013,2.213-6.874,4.934-8.607l48.183-29.408c0.93-0.593,1.917-1.148,2.994-1.42c0.737-0.186,1.574-0.259,2.271,0.107
		c0.772,0.405,1.055,1.267,1.055,2.095V93.1c0,2.977-2.343,9.209-5.119,10.979l-48.854,28.876
		C62.914,133.529,62.015,133.823,61.212,133.823z M115.656,34.462c-0.87,0-2.206,0.515-3.655,1.438L63.818,65.308
		c-2.415,1.539-4.463,5.095-4.463,7.759v57.268c0,1.119,0.356,1.931,1.003,2.286c0.726,0.397,1.794,0.211,2.931-0.515l0.014-0.009
		l48.847-28.871c2.388-1.521,4.643-7.43,4.643-10.126V35.833c0-0.638-0.168-1.054-0.499-1.235
		C116.126,34.507,115.911,34.462,115.656,34.462z"/>
</g>
<g>
	<path fill="#081F2C" d="M58.042,68.004c-2.298,0-4.696-2.02-6.636-3.217c-2.153-1.328-4.306-2.656-6.459-3.983
		c-2.827-1.743-5.653-3.487-8.48-5.23c-3.132-1.932-6.264-3.863-9.396-5.795c-3.069-1.893-6.138-3.785-9.206-5.678
		c-2.637-1.626-5.274-3.253-7.912-4.879c-1.837-1.133-3.674-2.266-5.512-3.399c-0.608-0.375-1.498-0.729-2.008-1.238
		c-0.694-0.694-0.694-1.825,0-2.52l0.098-0.076l51.66-30.77c2.911-1.653,4.745-1.629,8.186,0.097l52.832,29.415l0.459,0.36
		c0.694,0.695,0.795,1.8,0.101,2.494l-0.093,0.073c-0.705,0.43-1.41,0.86-2.116,1.291c-1.871,1.141-3.741,2.282-5.612,3.423
		c-2.672,1.63-5.344,3.26-8.016,4.889c-3.109,1.896-6.218,3.793-9.327,5.689c-3.182,1.941-6.364,3.882-9.546,5.823
		c-2.891,1.763-5.782,3.527-8.672,5.29c-2.235,1.364-4.471,2.727-6.706,4.091c-1.255,0.765-2.471,1.592-3.745,2.328
		C60.778,67.151,59.422,68.004,58.042,68.004z M3.106,33.841L55.47,66.12c2.387,1.331,3.156,1.136,5.688-0.378l53.94-32.901
		c0.254-0.292,0.256-0.729,0.005-1.023L61.91,2.2c-3.124-1.569-4.612-1.594-7.215-0.117L3.104,32.813
		C2.849,33.107,2.85,33.548,3.106,33.841z"/>
</g>
<g>
	<path fill="#081F2C" d="M1,38.638H0c0-5.91,3.377-7.176,3.521-7.227l0.334,0.942l-0.167-0.471l0.171,0.47
		c-0.028-0.076-1.037,0.725-1.084,0.773c-0.7,0.713-1.143,1.63-1.412,2.584C1.288,35.978,0.851,38.638,1,38.638z"/>
</g>
<g>
	<path fill="#081F2C" d="M2.036,34.972H1.964c-0.405,0-0.735-0.33-0.735-0.735s0.33-0.735,0.735-0.735
		c0.477,0,0.807,0.33,0.807,0.735S2.441,34.972,2.036,34.972z M2,33.974c-0.129,0.018-0.229,0.128-0.229,0.262
		c0,0.146,0.119,0.265,0.265,0.265c0.074,0,0.193-0.119,0.193-0.265C2.229,34.103,2.129,33.992,2,33.974z"/>
</g>
<g>
	<path fill="#081F2C" d="M58.491,72.934l-2.03-4.575c-0.429-0.303-0.582-0.523-0.633-0.622l-0.381-0.731h4.759l0.142-0.169
		l0.805,0.59l-1.577,2.484l-0.265,1.249L58.491,72.934z"/>
</g>
<g>
	<rect x="57.77" y="68.243" fill="#081F2C" width="1.085" height="1"/>
</g>
<g>
	<path fill="#081F2C" d="M117.792,36.394h-1c0-4.303-2.724-5.194-2.84-5.23l0.286-0.958
		C114.947,30.84,117.792,31.313,117.792,36.394z"/>
</g>
<g>

		<rect x="115.455" y="32.817" transform="matrix(0.198 0.9802 -0.9802 0.198 125.727 -87.0312)" fill="#081F2C" width="1.189" height="1"/>
</g>
<g>
	<path fill="#081F2C" d="M59.035,134.231c-2.876,0-5.141-1.172-5.283-1.246l0.467-0.885c0.047,0.024,4.853,2.498,9.083-0.003
		l0.51,0.861C62.196,133.913,60.533,134.231,59.035,134.231z"/>
</g>
<g>
	<path fill="#081F2C" d="M60.124,133.854c-0.019,0.006-0.039,0.011-0.061,0.014c-0.193,0.028-0.381-0.075-0.538-0.191
		c-0.157-0.116-0.308-0.251-0.496-0.306c0.011,0.113-0.063,0.222-0.159,0.283c-0.096,0.061-0.211,0.083-0.324,0.101
		c-0.564,0.091-1.139,0.112-1.708,0.062c0.407,0.036,0.869-1.137,1.044-1.409c0.1-0.155,0.343-0.715,0.535-0.74
		c0.308-0.04,1.319,0.924,1.591,1.117c0.113,0.08,0.229,0.164,0.297,0.284C60.436,133.305,60.418,133.758,60.124,133.854z"/>
</g>
<g>
	<path fill="#081F2C" d="M56.747,133.798c-0.028,0-0.055-0.001-0.083-0.003l0.062-0.998c0.441,0.057,1.396-0.644,1.891-1.106
		l0.684,0.729C59.05,132.655,57.778,133.798,56.747,133.798z"/>
</g>
<g>
	<rect x="56.125" y="132.909" fill="#081F2C" width="1" height="0.309"/>
</g>
<polyline fill="#081F2C" points="1.771,34.236 2.229,34.237 3.021,34.238 1.771,34.722 2,33.305 3.104,34.502 "/>
<path fill="#081F2C" d="M47.942,106.973c4.1,2.718,5.215,6.173,2.991,9.273c-2.158,3.008-6.323,3.461-9.937,1.08
	c-3.416-2.25-4.86-6.87-3.004-9.605C39.874,104.945,44.373,104.608,47.942,106.973z"/>
<path fill="#081F2C" d="M101.834,49.133c3.586-2.673,6.832-2.635,8.71,0.101c1.822,2.655,0.865,6.275-2.284,8.635
	c-2.976,2.23-7.301,2.142-8.992-0.184C97.552,55.326,98.712,51.459,101.834,49.133z"/>
<path fill="#081F2C" d="M69.19,108.556c3.941-2.937,7.507-2.895,9.57,0.111c2.002,2.918,0.95,6.895-2.51,9.488
	c-3.27,2.451-8.022,2.354-9.881-0.202C64.485,115.361,65.76,111.112,69.19,108.556z"/>
<path fill="#081F2C" d="M88.304,80.334c3.659-2.727,6.957-2.705,8.852,0.059c1.839,2.682,0.847,6.355-2.365,8.763
	c-3.036,2.276-7.431,2.208-9.139-0.141C83.921,86.633,85.12,82.708,88.304,80.334z"/>
<path fill="#081F2C" d="M15.842,48.63c3.933,2.606,5.055,5.841,3.009,8.682c-1.985,2.757-5.92,3.098-9.387,0.815
	c-3.276-2.158-4.732-6.483-3.027-8.992C8.166,46.59,12.419,46.362,15.842,48.63z"/>
<path fill="#081F2C" d="M59.244,27.076c5.059,0.019,7.967,1.901,7.804,5.052c-0.158,3.058-3.484,5.26-7.935,5.253
	c-4.206-0.006-8.055-2.544-8.003-5.276C51.163,29.333,54.841,27.06,59.244,27.076z"/>
</svg>
